<svg width="32" height="32" viewBox="0 0 32 32" fill="none" xmlns="http://www.w3.org/2000/svg">
  <!-- Background circle -->
  <circle cx="16" cy="16" r="15" fill="#4F4A85" stroke="#383351" stroke-width="2"/>
  
  <!-- Waveform bars -->
  <rect x="6" y="20" width="2" height="8" fill="#FFFFFF" rx="1"/>
  <rect x="9" y="16" width="2" height="12" fill="#FFFFFF" rx="1"/>
  <rect x="12" y="12" width="2" height="16" fill="#FFFFFF" rx="1"/>
  <rect x="15" y="8" width="2" height="20" fill="#FFFFFF" rx="1"/>
  <rect x="18" y="14" width="2" height="14" fill="#FFFFFF" rx="1"/>
  <rect x="21" y="18" width="2" height="10" fill="#FFFFFF" rx="1"/>
  <rect x="24" y="22" width="2" height="6" fill="#FFFFFF" rx="1"/>
  
  <!-- Vue.js logo inspiration (simplified) -->
  <path d="M16 4 L20 12 L16 20 L12 12 Z" fill="#42B883" opacity="0.8"/>
  
  <!-- Audio wave lines -->
  <path d="M4 26 Q8 24 12 26 Q16 28 20 26 Q24 24 28 26" stroke="#FFFFFF" stroke-width="1.5" fill="none" opacity="0.6"/>
</svg>
